<svg width="300" viewBox="0 0 300 300" xmlns="http://www.w3.org/2000/svg">
  <circle cx="150" cy="150" r="140" fill="#00b4b4"/>
  <circle cx="150" cy="150" r="120" fill="#ffffff"/>
  <path d="M150,150 l0,-100 a100,100 0 0,1 0,200 a100,100 0 0,1 0,-100" fill="#00b4b4"/>
  <rect x="175" y="90" width="50" height="120" fill="#00b4b4"/>
  <rect x="215" y="130" width="30" height="20" fill="#ffffff"/>
  <rect x="180" y="140" width="20" height="20" fill="#ffffff"/>
  <rect x="180" y="170" width="20" height="20" fill="#ffffff"/>
  <rect x="215" y="180" width="30" height="20" fill="#ffffff"/>
  <circle cx="225" cy="135" r="10" fill="#00b4b4"/>
  <circle cx="225" cy="165" r="10" fill="#00b4b4"/>
  <rect x="55" y="160" width="70" height="20" fill="#00b4b4"/>
  <rect x="105" y="140" width="20" height="40" fill="#00b4b4"/>
  <rect x="150" y="140" width="20" height="40" fill="#00b4b4"/>
  <text x="150" y="245" font-size="28" font-family="Arial" fill="#ffffff" text-anchor="middle">OpenAI</text>
</svg>
