As an AI language model, I can provide guidance on how to create an SVG logo that looks more like headphones on the OpenAI logo, reading a book, and includes the text "qualitative audio dataparsing". Here's an example code that you can modify to fit your specific design needs:

html
Copy code
<svg width="200" height="200" viewBox="0 0 200 200" xmlns="http://www.w3.org/2000/svg">
  <!-- Draw the OpenAI logo -->
  <circle cx="100" cy="100" r="90" fill="#000" />
  <path d="M 28 96 L 100 5 L 172 96 L 100 193 Z" fill="#F63C30" />
  <path d="M 35 118 L 99 17 L 163 118 L 99 220 Z" fill="#FFB200" />
  <path d="M 72 92 L 129 92 L 139 123 L 100 173 L 61 123 Z" fill="#FFF" />
  <path d="M 99 84 L 118 120 L 100 128 L 82 120 Z" fill="#000" />
  <path d="M 99 85 L 83 119 L 92 122 L 100 125 L 108 122 L 117 119 Z" fill="#FFF" />
  
  <!-- Draw the headphones -->
  <path d="M 155 70 L 155 115 L 170 125 L 170 60 Z" fill="#FFF" />
  <path d="M 30 70 L 30 115 L 15 125 L 15 60 Z" fill="#FFF" />
  <path d="M 165 115 L 155 115 L 155 70 L 165 75 Z" fill="#F63C30" />
  <path d="M 30 115 L 40 115 L 40 75 L 30 70 Z" fill="#F63C30" />
  <path d="M 150 80 L 150 105 L 163 110 L 163 75 Z" fill="#FFB200" />
  <path d="M 45 80 L 45 105 L 32 110 L 32 75 Z" fill="#FFB200" />
  <path d="M 130 85 L 70 85 L 70 95 L 130 95 Z" fill="#FFF" />
  <path d="M 130 90 L 70 90 L 70 91 L 130 91 Z" fill="#000" />
  
  <!-- Draw the book -->
  <rect x="80" y="130" width="40" height="60" fill="#F63C30" />
  <path d="M 80 130 L 60 140 L 60 200 L 80 190 Z" fill="#FFB200" />
  <path d="M 120 130 L 140 140 L 140 200 L 120 190 Z" fill="#FFB200" />
  <text x="100" y="165" font-size="12" font-family="Arial" fill="#FFF" text-anchor="middle">qualitative audio</text>
  <text x="100" y="180" font-size="12" font-family="Arial" fill="#FFF" text-anchor="middle">dataparsing</text>
</svg>
