<svg viewBox="0 0 200 200" xmlns="http://www.w3.org/2000/svg">
  <rect x="0" y="0" width="200" height="200" fill="#1F1F1F" />
  <path d="M100,50 C115.11,50 127.84,59.39 135.84,73.76 L159.05,50.55 C147.29,36.93 126.11,28.34 100,28.34 C71.93,28.34 49.3,37.99 37.53,51.25 L60.71,74.44 C68.63,60.11 81.37,50 96.5,50 L100,50 Z" fill="#00FFFF" />
  <path d="M105.06,79.89 C105.06,83.92 101.98,87 97.95,87 L76.17,87 L76.17,112.07 L97.95,112.07 C101.98,112.07 105.06,115.15 105.06,119.18 L105.06,156.76 C105.06,160.79 101.98,163.87 97.95,163.87 L50.67,163.87 C46.64,163.87 43.56,160.79 43.56,156.76 L43.56,119.18 C43.56,115.15 46.64,112.07 50.67,112.07 L72.45,112.07 L72.45,87 L50.67,87 C46.64,87 43.56,83.92 43.56,79.89 L43.56,42.31 C43.56,38.28 46.64,35.2 50.67,35.2 L97.95,35.2 C101.98,35.2 105.06,38.28 105.06,42.31 L105.06,79.89 Z" fill="#0B3B39" />
  <path d="M68.49,78.45 L68.49,92.47 C70.11,92.08 71.8,91.87 73.53,91.87 C81.64,91.87 88.54,98.77 88.54,106.87 C88.54,114.97 81.64,121.87 73.53,121.87 C71.8,121.87 70.11,121.66 68.49,121.27 L68.49,135.29 C70.85,135.83 73.31,136.09 75.81,136.09 C87.36,136.09 97.2,126.26 97.2,114.71 C97.2,103.16 87.36,93.33 75.81,93.33 C73.31,93.33 70.85,

  <text x="140" y="175" font-size="18" font-family="Arial" fill="#FFF" text-anchor="middle">Qualitative</text>
  <text x="140" y="195" font-size="18" font-family="Arial" fill="#FFF" text-anchor="middle">AudioSub</text>
  <text x="140" y="215" font-size="18" font-family="Arial" fill="#FFF" text-anchor="middle">Categorization</text>
                                                                                           </svg>
