<svg width="300" height="300" viewBox="0 0 300 300" xmlns="http://www.w3.org/2000/svg">
  <circle cx="150" cy="150" r="140" fill="#00bf8f"/>
  <circle cx="150" cy="150" r="90" fill="#ffffff"/>
  <circle cx="150" cy="150" r="60" fill="#00bf8f"/>
  <path d="M 120 170 C 125 190 145 210 150 210 C 155 210 175 190 180 170" stroke="#ffffff" stroke-width="15" fill="none"/>
  <path d="M 130 130 C 140 125 160 125 170 130" stroke="#ffffff" stroke-width="15" fill="none"/>
  <path d="M 120 170 C 125 190 145 210 150 210 C 155 210 175 190 180 170" stroke="#000000" stroke-width="5" fill="none"/>
  <path d="M 130 130 C 140 125 160 125 170 130" stroke="#000000" stroke-width="5" fill="none"/>
  <rect x="110" y="220" width="80" height="40" fill="#0077be"/>
  <path d="M 145 180 L 145 230" stroke="#ffffff" stroke-width="8" fill="none"/>
  <path d="M 142 230 L 130 250" stroke="#ffffff" stroke-width="8" fill="none"/>
  <path d="M 148 230 L 160 250" stroke="#ffffff" stroke-width="8" fill="none"/>
  <text x="150" y="280" font-size="22" font-family="Arial" fill="#ff4136" text-anchor="middle">Qualitative Research with AI</text>
</svg>
